<?xml version="1.0" standalone="no"?>
<!DOCTYPE svg PUBLIC "-//W3C//DTD SVG 20010904//EN"
 "http://www.w3.org/TR/2001/REC-SVG-20010904/DTD/svg10.dtd">
<svg version="1.0" xmlns="http://www.w3.org/2000/svg"
 width="701.000000pt" height="701.000000pt" viewBox="0 0 701.000000 701.000000"
 preserveAspectRatio="xMidYMid meet">
<metadata>
Created by potrace 1.14, written by Peter Selinger 2001-2017
</metadata>
<g transform="translate(0.000000,701.000000) scale(0.100000,-0.100000)"
fill="#000000" stroke="none">
<path d="M1049 6983 c-101 -26 -245 -144 -301 -249 -62 -114 -58 48 -58 -2436
0 -1622 3 -2282 11 -2320 13 -61 65 -167 109 -220 17 -20 110 -89 208 -154 97
-64 236 -158 307 -209 72 -51 254 -177 405 -280 543 -371 625 -428 769 -529
249 -175 693 -480 746 -512 154 -92 335 -85 478 19 149 109 439 315 597 426
96 67 240 168 320 225 298 210 1213 846 1416 984 188 127 235 190 255 341 5
42 8 229 7 416 l-3 340 -23 -62 c-39 -106 -76 -140 -482 -428 -69 -49 -206
-148 -305 -220 -99 -72 -265 -194 -370 -270 -104 -76 -282 -204 -395 -284
-216 -152 -522 -371 -703 -503 -59 -43 -110 -77 -115 -77 -21 4 -42 -2 -42
-11 0 -7 6 -7 20 0 28 15 25 5 -5 -14 -14 -9 -25 -13 -24 -9 4 25 -2 57 -9 46
-6 -9 -11 -6 -21 8 -7 12 -8 18 -2 14 6 -3 11 0 11 9 0 23 -11 46 -20 41 -5
-3 -11 -1 -15 5 -3 5 -2 10 3 10 6 0 8 9 5 20 -5 20 -6 20 -27 3 -16 -14 -18
-14 -8 -2 10 14 10 18 -4 23 -9 3 -20 4 -24 1 -5 -3 -7 8 -5 25 3 21 -2 34
-16 43 -20 15 -17 52 5 41 6 -3 1 3 -12 13 -18 15 -20 21 -10 31 9 9 9 12 -4
12 -8 0 -21 -6 -27 -14 -6 -8 -21 -16 -32 -19 -16 -4 -18 -3 -8 9 6 7 15 11
20 8 5 -3 9 -1 9 4 0 11 195 157 490 368 107 77 238 172 290 211 52 38 226
164 385 279 499 358 578 415 777 560 106 78 274 200 373 271 180 131 309 249
320 294 3 13 4 771 3 1684 l-3 1660 -22 57 c-66 174 -213 301 -379 328 -37 6
-953 9 -2435 8 -1976 -1 -2385 -4 -2430 -15z m1145 -879 c82 -21 182 -75 237
-128 25 -24 100 -117 168 -207 538 -723 820 -1090 864 -1123 23 -18 46 -26 72
-26 48 0 85 37 206 205 172 241 396 545 549 745 86 113 186 246 223 296 72 98
121 144 207 192 84 47 160 65 249 60 102 -6 156 -34 170 -86 16 -57 16 -2785
1 -2843 -16 -59 -54 -131 -91 -173 l-31 -35 -21 19 c-11 11 -27 20 -34 20 -7
0 -13 4 -13 8 0 4 -21 24 -47 45 -27 20 -63 50 -81 68 -24 23 -33 27 -30 14 2
-10 -4 -20 -12 -22 -12 -4 -12 -3 -1 5 9 7 10 12 2 16 -15 10 -31 -2 -25 -18
6 -14 -43 -15 -66 -1 -8 5 -11 4 -7 -2 4 -6 -2 -13 -13 -16 -11 -3 -20 -1 -20
4 0 5 -10 5 -24 -1 -13 -5 -34 -6 -46 -3 -15 4 -21 2 -17 -4 4 -7 -9 -12 -34
-15 -22 -2 -43 0 -46 5 -2 4 -11 3 -19 -4 -8 -6 -14 -8 -14 -3 0 5 -5 2 -10
-6 -8 -12 -10 -12 -10 -1 0 11 -3 11 -16 0 -9 -7 -22 -14 -30 -15 -22 -3 -100
98 -318 411 -66 94 -124 177 -129 185 -9 12 -9 13 3 3 19 -18 26 -16 27 7 1
12 -3 18 -8 14 -6 -3 -5 3 2 14 7 12 16 19 20 16 4 -2 9 3 13 11 3 8 1 15 -5
15 -6 0 -1 13 10 29 12 16 21 32 21 36 0 13 34 80 43 86 5 4 7 11 3 17 -3 5 3
21 15 35 11 15 20 29 19 32 -1 20 1 25 9 20 10 -5 0 40 -14 67 -12 24 27 -27
158 -207 71 -99 181 -247 242 -330 61 -82 136 -184 167 -226 31 -41 64 -83 73
-93 18 -17 19 -17 34 11 14 25 16 145 19 1102 1 591 -1 1071 -5 1067 -5 -4
-71 -95 -148 -202 -77 -106 -206 -285 -287 -396 -185 -255 -271 -375 -433
-608 -71 -102 -151 -206 -177 -231 -84 -83 -189 -116 -286 -89 -78 20 -125 75
-407 470 -77 107 -171 238 -210 290 -39 52 -152 203 -250 335 -98 132 -194
260 -213 285 -19 25 -57 75 -85 112 -28 38 -51 67 -51 65 -1 -1 3 -569 8
-1262 l8 -1260 -108 -102 c-60 -57 -114 -103 -121 -103 -38 -1 -129 163 -144
262 -7 45 -9 562 -7 1555 3 1463 3 1489 23 1521 45 74 165 101 299 66z m640
-2489 c-4 -9 0 -15 10 -15 9 0 16 -7 16 -15 0 -8 6 -14 13 -12 6 1 11 -6 9
-15 -2 -10 2 -18 8 -18 5 0 10 -6 10 -13 0 -7 11 -21 25 -31 14 -10 25 -25 25
-32 0 -7 13 -25 29 -41 32 -32 43 -61 45 -113 2 -30 -18 -62 -139 -230 -162
-225 -283 -380 -298 -380 -6 0 -2 9 8 20 18 19 17 20 -3 20 -11 0 -22 5 -24
11 -2 5 -10 11 -18 12 -24 4 -41 18 -35 28 5 8 -16 14 -37 10 -5 0 -8 6 -8 14
0 8 -11 22 -25 31 -23 15 -73 109 -67 127 1 4 -5 7 -14 7 -8 0 -12 5 -9 10 4
6 10 8 14 6 4 -3 8 0 8 7 0 11 452 627 460 627 1 0 0 -7 -3 -15z m220 -300
c-20 -30 -23 -31 -21 -6 0 11 4 18 8 15 4 -2 10 0 14 6 3 5 8 10 11 10 2 0 -3
-11 -12 -25z m-1461 -852 c62 -42 195 -136 297 -208 744 -531 1490 -1047 1557
-1078 l25 -11 -4 -136 c-5 -146 -16 -185 -66 -235 -22 -22 -24 -28 -12 -36 13
-7 13 -9 0 -9 -32 0 -140 61 -252 143 -190 140 -932 666 -1276 906 -208 146
-337 241 -325 241 7 0 15 -5 19 -11 4 -8 9 -7 15 2 13 20 11 37 -2 19 -8 -11
-9 -7 -5 18 4 25 3 31 -7 26 -9 -6 -9 -5 0 7 13 16 6 72 -8 63 -5 -3 -9 -1 -9
5 0 5 6 11 13 14 9 3 9 7 -1 20 -8 9 -11 21 -8 26 4 5 -7 24 -23 40 -17 17
-26 31 -21 31 16 0 11 37 -6 44 -8 3 -12 11 -8 17 4 8 9 7 16 -2 7 -10 8 -8 3
6 -4 11 -8 25 -9 30 -1 6 -5 16 -9 23 -5 7 -4 12 2 12 6 0 11 7 11 15 0 8 -7
15 -16 15 -9 0 -12 -5 -8 -12 4 -7 3 -8 -4 -4 -27 17 5 53 41 47 5 -1 6 3 2 9
-5 8 -11 8 -20 0 -9 -7 -15 -8 -19 -1 -4 6 -13 8 -20 5 -7 -3 -16 2 -19 10 -4
10 -1 13 7 10 8 -3 17 -1 21 5 3 6 8 11 11 11 3 0 55 -35 117 -77z m-108 -72
c3 -5 0 -13 -6 -17 -7 -4 -9 -3 -5 4 3 5 0 13 -6 15 -9 4 -10 6 -1 6 6 1 14
-3 18 -8z m75 -265 c0 -2 -7 -7 -16 -10 -8 -3 -12 -2 -9 4 6 10 25 14 25 6z"/>
</g>
</svg>
